<mxfile host="Electron" agent="Mozilla/5.0 (X11; Linux x86_64) AppleWebKit/537.36 (KHTML, like Gecko) draw.io/26.2.15 Chrome/134.0.6998.205 Electron/35.2.2 Safari/537.36" version="26.2.15">
  <diagram name="Page-1" id="0MRVWRIOqz95eaR4ipgQ">
    <mxGraphModel dx="663" dy="1216" grid="1" gridSize="10" guides="1" tooltips="1" connect="1" arrows="1" fold="1" page="1" pageScale="1" pageWidth="850" pageHeight="1100" math="0" shadow="0">
      <root>
        <mxCell id="0" />
        <mxCell id="1" parent="0" />
        <mxCell id="64EpxRwVbbQgUjMSI_ka-127" style="edgeStyle=orthogonalEdgeStyle;rounded=1;orthogonalLoop=1;jettySize=auto;html=1;exitX=0.5;exitY=0;exitDx=0;exitDy=0;entryX=0.5;entryY=1;entryDx=0;entryDy=0;endArrow=none;startFill=0;" parent="1" source="64EpxRwVbbQgUjMSI_ka-2" target="64EpxRwVbbQgUjMSI_ka-126" edge="1">
          <mxGeometry relative="1" as="geometry" />
        </mxCell>
        <mxCell id="64EpxRwVbbQgUjMSI_ka-128" style="edgeStyle=orthogonalEdgeStyle;rounded=1;orthogonalLoop=1;jettySize=auto;html=1;exitX=1;exitY=0;exitDx=0;exitDy=0;entryX=0.5;entryY=1;entryDx=0;entryDy=0;endArrow=none;startFill=0;" parent="1" source="64EpxRwVbbQgUjMSI_ka-2" target="64EpxRwVbbQgUjMSI_ka-80" edge="1">
          <mxGeometry relative="1" as="geometry" />
        </mxCell>
        <mxCell id="64EpxRwVbbQgUjMSI_ka-129" style="edgeStyle=orthogonalEdgeStyle;rounded=1;orthogonalLoop=1;jettySize=auto;html=1;exitX=0.75;exitY=0;exitDx=0;exitDy=0;entryX=0.5;entryY=1;entryDx=0;entryDy=0;endArrow=none;startFill=0;" parent="1" source="64EpxRwVbbQgUjMSI_ka-2" target="64EpxRwVbbQgUjMSI_ka-79" edge="1">
          <mxGeometry relative="1" as="geometry" />
        </mxCell>
        <mxCell id="64EpxRwVbbQgUjMSI_ka-130" style="edgeStyle=orthogonalEdgeStyle;rounded=1;orthogonalLoop=1;jettySize=auto;html=1;exitX=0;exitY=0.5;exitDx=0;exitDy=0;entryX=0.5;entryY=1;entryDx=0;entryDy=0;endArrow=none;startFill=0;" parent="1" source="64EpxRwVbbQgUjMSI_ka-2" target="64EpxRwVbbQgUjMSI_ka-88" edge="1">
          <mxGeometry relative="1" as="geometry" />
        </mxCell>
        <mxCell id="64EpxRwVbbQgUjMSI_ka-131" style="edgeStyle=orthogonalEdgeStyle;rounded=1;orthogonalLoop=1;jettySize=auto;html=1;exitX=0;exitY=0;exitDx=0;exitDy=0;entryX=0.5;entryY=1;entryDx=0;entryDy=0;endArrow=none;startFill=0;" parent="1" source="64EpxRwVbbQgUjMSI_ka-2" target="64EpxRwVbbQgUjMSI_ka-81" edge="1">
          <mxGeometry relative="1" as="geometry">
            <Array as="points">
              <mxPoint x="135" y="213.13" />
              <mxPoint x="135" y="163.13" />
              <mxPoint x="115" y="163.13" />
            </Array>
          </mxGeometry>
        </mxCell>
        <mxCell id="64EpxRwVbbQgUjMSI_ka-132" style="edgeStyle=orthogonalEdgeStyle;rounded=1;orthogonalLoop=1;jettySize=auto;html=1;exitX=0.25;exitY=0;exitDx=0;exitDy=0;entryX=0.5;entryY=1;entryDx=0;entryDy=0;endArrow=none;startFill=0;" parent="1" source="64EpxRwVbbQgUjMSI_ka-2" target="64EpxRwVbbQgUjMSI_ka-3" edge="1">
          <mxGeometry relative="1" as="geometry">
            <Array as="points">
              <mxPoint x="178" y="173.13" />
              <mxPoint x="150" y="173.13" />
            </Array>
          </mxGeometry>
        </mxCell>
        <mxCell id="-BMLWCmr1hAgnJE4KNeQ-6" style="edgeStyle=orthogonalEdgeStyle;rounded=1;orthogonalLoop=1;jettySize=auto;html=1;exitX=0.5;exitY=1;exitDx=0;exitDy=0;entryX=0.5;entryY=0;entryDx=0;entryDy=0;curved=0;endArrow=none;startFill=0;" parent="1" source="64EpxRwVbbQgUjMSI_ka-2" target="-BMLWCmr1hAgnJE4KNeQ-5" edge="1">
          <mxGeometry relative="1" as="geometry" />
        </mxCell>
        <mxCell id="64EpxRwVbbQgUjMSI_ka-2" value="Biblioteca" style="rounded=0;whiteSpace=wrap;html=1;" parent="1" vertex="1">
          <mxGeometry x="160" y="217.51" width="70" height="29.37" as="geometry" />
        </mxCell>
        <mxCell id="64EpxRwVbbQgUjMSI_ka-3" value="citta&#39;" style="ellipse;whiteSpace=wrap;html=1;rounded=1;" parent="1" vertex="1">
          <mxGeometry x="125" y="83.13" width="50" height="30" as="geometry" />
        </mxCell>
        <mxCell id="QNl1kk8Vg32E1iND4ZY_-21" style="edgeStyle=orthogonalEdgeStyle;rounded=0;orthogonalLoop=1;jettySize=auto;html=1;exitX=0;exitY=0.5;exitDx=0;exitDy=0;entryX=1;entryY=0.5;entryDx=0;entryDy=0;endArrow=none;startFill=0;" parent="1" source="64EpxRwVbbQgUjMSI_ka-13" target="64EpxRwVbbQgUjMSI_ka-2" edge="1">
          <mxGeometry relative="1" as="geometry" />
        </mxCell>
        <mxCell id="64EpxRwVbbQgUjMSI_ka-13" value="Contiene" style="rhombus;whiteSpace=wrap;html=1;rounded=0;" parent="1" vertex="1">
          <mxGeometry x="275" y="205.94" width="60" height="52.5" as="geometry" />
        </mxCell>
        <mxCell id="64EpxRwVbbQgUjMSI_ka-141" style="edgeStyle=orthogonalEdgeStyle;rounded=1;orthogonalLoop=1;jettySize=auto;html=1;exitX=0.5;exitY=0;exitDx=0;exitDy=0;entryX=0.5;entryY=1;entryDx=0;entryDy=0;endArrow=none;startFill=0;" parent="1" source="64EpxRwVbbQgUjMSI_ka-15" target="64EpxRwVbbQgUjMSI_ka-17" edge="1">
          <mxGeometry relative="1" as="geometry" />
        </mxCell>
        <mxCell id="64EpxRwVbbQgUjMSI_ka-143" style="edgeStyle=orthogonalEdgeStyle;rounded=1;orthogonalLoop=1;jettySize=auto;html=1;exitX=0.75;exitY=0;exitDx=0;exitDy=0;entryX=0.5;entryY=1;entryDx=0;entryDy=0;endArrow=none;startFill=0;" parent="1" source="64EpxRwVbbQgUjMSI_ka-15" target="64EpxRwVbbQgUjMSI_ka-26" edge="1">
          <mxGeometry relative="1" as="geometry">
            <Array as="points">
              <mxPoint x="628" y="190" />
              <mxPoint x="665" y="190" />
            </Array>
          </mxGeometry>
        </mxCell>
        <mxCell id="64EpxRwVbbQgUjMSI_ka-144" style="edgeStyle=orthogonalEdgeStyle;rounded=1;orthogonalLoop=1;jettySize=auto;html=1;exitX=1;exitY=0.25;exitDx=0;exitDy=0;entryX=0;entryY=0.5;entryDx=0;entryDy=0;endArrow=none;startFill=0;" parent="1" source="64EpxRwVbbQgUjMSI_ka-15" target="64EpxRwVbbQgUjMSI_ka-28" edge="1">
          <mxGeometry relative="1" as="geometry">
            <Array as="points">
              <mxPoint x="670" y="227" />
              <mxPoint x="670" y="198" />
            </Array>
          </mxGeometry>
        </mxCell>
        <mxCell id="64EpxRwVbbQgUjMSI_ka-145" style="edgeStyle=orthogonalEdgeStyle;rounded=1;orthogonalLoop=1;jettySize=auto;html=1;exitX=1;exitY=0.75;exitDx=0;exitDy=0;entryX=0;entryY=0.5;entryDx=0;entryDy=0;endArrow=none;startFill=0;" parent="1" source="64EpxRwVbbQgUjMSI_ka-15" target="64EpxRwVbbQgUjMSI_ka-19" edge="1">
          <mxGeometry relative="1" as="geometry" />
        </mxCell>
        <mxCell id="64EpxRwVbbQgUjMSI_ka-149" style="edgeStyle=orthogonalEdgeStyle;rounded=1;orthogonalLoop=1;jettySize=auto;html=1;exitX=0.25;exitY=1;exitDx=0;exitDy=0;entryX=0.5;entryY=0;entryDx=0;entryDy=0;endArrow=none;startFill=0;" parent="1" source="64EpxRwVbbQgUjMSI_ka-15" target="64EpxRwVbbQgUjMSI_ka-48" edge="1">
          <mxGeometry relative="1" as="geometry" />
        </mxCell>
        <mxCell id="64EpxRwVbbQgUjMSI_ka-210" style="edgeStyle=orthogonalEdgeStyle;rounded=1;orthogonalLoop=1;jettySize=auto;html=1;exitX=0;exitY=0.5;exitDx=0;exitDy=0;entryX=1;entryY=0.5;entryDx=0;entryDy=0;endArrow=none;startFill=0;" parent="1" source="64EpxRwVbbQgUjMSI_ka-15" target="64EpxRwVbbQgUjMSI_ka-138" edge="1">
          <mxGeometry relative="1" as="geometry" />
        </mxCell>
        <mxCell id="uW3rmdDY23yGLlYiRjBE-10" style="edgeStyle=orthogonalEdgeStyle;rounded=1;orthogonalLoop=1;jettySize=auto;html=1;exitX=1;exitY=0.5;exitDx=0;exitDy=0;entryX=0;entryY=0.5;entryDx=0;entryDy=0;curved=0;endArrow=none;startFill=0;" edge="1" parent="1" source="64EpxRwVbbQgUjMSI_ka-15" target="uW3rmdDY23yGLlYiRjBE-9">
          <mxGeometry relative="1" as="geometry" />
        </mxCell>
        <mxCell id="64EpxRwVbbQgUjMSI_ka-15" value="Libro" style="rounded=0;whiteSpace=wrap;html=1;" parent="1" vertex="1">
          <mxGeometry x="590" y="218.13" width="50" height="35" as="geometry" />
        </mxCell>
        <mxCell id="64EpxRwVbbQgUjMSI_ka-17" value="&lt;u&gt;ISBN&lt;/u&gt;" style="ellipse;whiteSpace=wrap;html=1;rounded=1;" parent="1" vertex="1">
          <mxGeometry x="595" y="150" width="40" height="30" as="geometry" />
        </mxCell>
        <mxCell id="64EpxRwVbbQgUjMSI_ka-19" value="titolo" style="ellipse;whiteSpace=wrap;html=1;rounded=1;" parent="1" vertex="1">
          <mxGeometry x="690" y="258.44" width="40" height="27.5" as="geometry" />
        </mxCell>
        <mxCell id="64EpxRwVbbQgUjMSI_ka-22" value="Scritto" style="rhombus;whiteSpace=wrap;html=1;rounded=0;" parent="1" vertex="1">
          <mxGeometry x="700" y="317.5" width="50" height="47.5" as="geometry" />
        </mxCell>
        <mxCell id="64EpxRwVbbQgUjMSI_ka-154" style="edgeStyle=orthogonalEdgeStyle;rounded=1;orthogonalLoop=1;jettySize=auto;html=1;exitX=0.25;exitY=0;exitDx=0;exitDy=0;entryX=1;entryY=0.5;entryDx=0;entryDy=0;endArrow=none;startFill=0;" parent="1" source="64EpxRwVbbQgUjMSI_ka-24" target="64EpxRwVbbQgUjMSI_ka-37" edge="1">
          <mxGeometry relative="1" as="geometry" />
        </mxCell>
        <mxCell id="64EpxRwVbbQgUjMSI_ka-155" style="edgeStyle=orthogonalEdgeStyle;rounded=1;orthogonalLoop=1;jettySize=auto;html=1;exitX=0;exitY=0.5;exitDx=0;exitDy=0;entryX=1;entryY=0.5;entryDx=0;entryDy=0;endArrow=none;startFill=0;" parent="1" source="64EpxRwVbbQgUjMSI_ka-24" target="64EpxRwVbbQgUjMSI_ka-39" edge="1">
          <mxGeometry relative="1" as="geometry" />
        </mxCell>
        <mxCell id="64EpxRwVbbQgUjMSI_ka-159" style="edgeStyle=orthogonalEdgeStyle;rounded=1;orthogonalLoop=1;jettySize=auto;html=1;exitX=0.75;exitY=0;exitDx=0;exitDy=0;entryX=0;entryY=0.5;entryDx=0;entryDy=0;endArrow=none;startFill=0;" parent="1" source="64EpxRwVbbQgUjMSI_ka-24" target="64EpxRwVbbQgUjMSI_ka-46" edge="1">
          <mxGeometry relative="1" as="geometry">
            <Array as="points">
              <mxPoint x="738" y="365" />
            </Array>
          </mxGeometry>
        </mxCell>
        <mxCell id="64EpxRwVbbQgUjMSI_ka-182" style="edgeStyle=orthogonalEdgeStyle;rounded=1;orthogonalLoop=1;jettySize=auto;html=1;exitX=0.5;exitY=0;exitDx=0;exitDy=0;entryX=0.5;entryY=1;entryDx=0;entryDy=0;endArrow=none;startFill=0;" parent="1" source="64EpxRwVbbQgUjMSI_ka-24" target="64EpxRwVbbQgUjMSI_ka-22" edge="1">
          <mxGeometry relative="1" as="geometry" />
        </mxCell>
        <mxCell id="uW3rmdDY23yGLlYiRjBE-4" style="edgeStyle=orthogonalEdgeStyle;rounded=1;orthogonalLoop=1;jettySize=auto;html=1;exitX=1;exitY=0.5;exitDx=0;exitDy=0;entryX=0;entryY=0.5;entryDx=0;entryDy=0;curved=0;endArrow=none;startFill=0;" edge="1" parent="1" source="64EpxRwVbbQgUjMSI_ka-24" target="64EpxRwVbbQgUjMSI_ka-43">
          <mxGeometry relative="1" as="geometry" />
        </mxCell>
        <mxCell id="uW3rmdDY23yGLlYiRjBE-6" style="edgeStyle=orthogonalEdgeStyle;rounded=1;orthogonalLoop=1;jettySize=auto;html=1;exitX=0.25;exitY=1;exitDx=0;exitDy=0;entryX=0.5;entryY=0;entryDx=0;entryDy=0;curved=0;endArrow=none;startFill=0;" edge="1" parent="1" source="64EpxRwVbbQgUjMSI_ka-24" target="64EpxRwVbbQgUjMSI_ka-41">
          <mxGeometry relative="1" as="geometry">
            <Array as="points">
              <mxPoint x="713" y="420" />
              <mxPoint x="660" y="420" />
            </Array>
          </mxGeometry>
        </mxCell>
        <mxCell id="uW3rmdDY23yGLlYiRjBE-7" style="edgeStyle=orthogonalEdgeStyle;rounded=1;orthogonalLoop=1;jettySize=auto;html=1;exitX=0.5;exitY=1;exitDx=0;exitDy=0;entryX=0.5;entryY=0;entryDx=0;entryDy=0;curved=0;endArrow=none;startFill=0;" edge="1" parent="1" source="64EpxRwVbbQgUjMSI_ka-24" target="uW3rmdDY23yGLlYiRjBE-5">
          <mxGeometry relative="1" as="geometry" />
        </mxCell>
        <mxCell id="uW3rmdDY23yGLlYiRjBE-8" style="edgeStyle=orthogonalEdgeStyle;rounded=1;orthogonalLoop=1;jettySize=auto;html=1;exitX=0.75;exitY=1;exitDx=0;exitDy=0;entryX=0.5;entryY=0;entryDx=0;entryDy=0;curved=0;endArrow=none;startFill=0;" edge="1" parent="1" source="64EpxRwVbbQgUjMSI_ka-24" target="64EpxRwVbbQgUjMSI_ka-42">
          <mxGeometry relative="1" as="geometry">
            <Array as="points">
              <mxPoint x="738" y="420" />
              <mxPoint x="790" y="420" />
            </Array>
          </mxGeometry>
        </mxCell>
        <mxCell id="64EpxRwVbbQgUjMSI_ka-24" value="Autore" style="rounded=0;whiteSpace=wrap;html=1;" parent="1" vertex="1">
          <mxGeometry x="700" y="390" width="50" height="20" as="geometry" />
        </mxCell>
        <mxCell id="64EpxRwVbbQgUjMSI_ka-26" value="trama" style="ellipse;whiteSpace=wrap;html=1;rounded=1;" parent="1" vertex="1">
          <mxGeometry x="645" y="143.13" width="40" height="30" as="geometry" />
        </mxCell>
        <mxCell id="64EpxRwVbbQgUjMSI_ka-28" value="casa editrice" style="ellipse;whiteSpace=wrap;html=1;rounded=1;" parent="1" vertex="1">
          <mxGeometry x="685" y="177.51" width="60" height="40" as="geometry" />
        </mxCell>
        <mxCell id="64EpxRwVbbQgUjMSI_ka-37" value="&lt;u&gt;ID&lt;/u&gt;" style="ellipse;whiteSpace=wrap;html=1;rounded=1;" parent="1" vertex="1">
          <mxGeometry x="625" y="355" width="40" height="20" as="geometry" />
        </mxCell>
        <mxCell id="64EpxRwVbbQgUjMSI_ka-39" value="nome" style="ellipse;whiteSpace=wrap;html=1;rounded=1;" parent="1" vertex="1">
          <mxGeometry x="625" y="385" width="40" height="30" as="geometry" />
        </mxCell>
        <mxCell id="64EpxRwVbbQgUjMSI_ka-41" value="cognome" style="ellipse;whiteSpace=wrap;html=1;rounded=1;" parent="1" vertex="1">
          <mxGeometry x="630" y="429.23" width="60" height="30" as="geometry" />
        </mxCell>
        <mxCell id="64EpxRwVbbQgUjMSI_ka-42" value="nascita" style="ellipse;whiteSpace=wrap;html=1;rounded=1;" parent="1" vertex="1">
          <mxGeometry x="765" y="429.23" width="50" height="30" as="geometry" />
        </mxCell>
        <mxCell id="64EpxRwVbbQgUjMSI_ka-43" value="morte" style="ellipse;whiteSpace=wrap;html=1;rounded=1;" parent="1" vertex="1">
          <mxGeometry x="785" y="385" width="40" height="30" as="geometry" />
        </mxCell>
        <mxCell id="64EpxRwVbbQgUjMSI_ka-46" value="biografia" style="ellipse;whiteSpace=wrap;html=1;rounded=1;" parent="1" vertex="1">
          <mxGeometry x="765" y="350" width="60" height="30" as="geometry" />
        </mxCell>
        <mxCell id="64EpxRwVbbQgUjMSI_ka-48" value="lingua" style="ellipse;whiteSpace=wrap;html=1;rounded=1;" parent="1" vertex="1">
          <mxGeometry x="580" y="276.25" width="45" height="25" as="geometry" />
        </mxCell>
        <mxCell id="64EpxRwVbbQgUjMSI_ka-178" style="edgeStyle=orthogonalEdgeStyle;rounded=1;orthogonalLoop=1;jettySize=auto;html=1;exitX=0.5;exitY=0;exitDx=0;exitDy=0;entryX=1;entryY=0.5;entryDx=0;entryDy=0;endArrow=none;startFill=0;" parent="1" source="64EpxRwVbbQgUjMSI_ka-50" target="64EpxRwVbbQgUjMSI_ka-51" edge="1">
          <mxGeometry relative="1" as="geometry" />
        </mxCell>
        <mxCell id="64EpxRwVbbQgUjMSI_ka-179" style="edgeStyle=orthogonalEdgeStyle;rounded=1;orthogonalLoop=1;jettySize=auto;html=1;exitX=0.5;exitY=1;exitDx=0;exitDy=0;entryX=1;entryY=0.5;entryDx=0;entryDy=0;endArrow=none;startFill=0;" parent="1" source="64EpxRwVbbQgUjMSI_ka-50" target="64EpxRwVbbQgUjMSI_ka-52" edge="1">
          <mxGeometry relative="1" as="geometry" />
        </mxCell>
        <mxCell id="WrM48daoIJoYGqW7nCg0-2" style="edgeStyle=orthogonalEdgeStyle;rounded=1;orthogonalLoop=1;jettySize=auto;html=1;exitX=0.75;exitY=0;exitDx=0;exitDy=0;entryX=0;entryY=0.5;entryDx=0;entryDy=0;curved=0;endArrow=none;startFill=0;" parent="1" source="64EpxRwVbbQgUjMSI_ka-50" target="64EpxRwVbbQgUjMSI_ka-66" edge="1">
          <mxGeometry relative="1" as="geometry" />
        </mxCell>
        <mxCell id="WrM48daoIJoYGqW7nCg0-4" style="edgeStyle=orthogonalEdgeStyle;rounded=1;orthogonalLoop=1;jettySize=auto;html=1;exitX=0.75;exitY=1;exitDx=0;exitDy=0;entryX=0;entryY=0.5;entryDx=0;entryDy=0;endArrow=none;startFill=0;curved=0;" parent="1" source="64EpxRwVbbQgUjMSI_ka-50" target="64EpxRwVbbQgUjMSI_ka-64" edge="1">
          <mxGeometry relative="1" as="geometry" />
        </mxCell>
        <mxCell id="uW3rmdDY23yGLlYiRjBE-11" style="edgeStyle=orthogonalEdgeStyle;rounded=1;orthogonalLoop=1;jettySize=auto;html=1;exitX=1;exitY=0;exitDx=0;exitDy=0;entryX=0;entryY=0.5;entryDx=0;entryDy=0;curved=0;endArrow=none;startFill=0;" edge="1" parent="1" source="64EpxRwVbbQgUjMSI_ka-50" target="64EpxRwVbbQgUjMSI_ka-70">
          <mxGeometry relative="1" as="geometry" />
        </mxCell>
        <mxCell id="uW3rmdDY23yGLlYiRjBE-12" style="edgeStyle=orthogonalEdgeStyle;rounded=1;orthogonalLoop=1;jettySize=auto;html=1;exitX=1;exitY=1;exitDx=0;exitDy=0;entryX=0;entryY=0.5;entryDx=0;entryDy=0;endArrow=none;startFill=0;curved=0;" edge="1" parent="1" source="64EpxRwVbbQgUjMSI_ka-50" target="WrM48daoIJoYGqW7nCg0-1">
          <mxGeometry relative="1" as="geometry" />
        </mxCell>
        <mxCell id="uW3rmdDY23yGLlYiRjBE-16" style="edgeStyle=orthogonalEdgeStyle;rounded=1;orthogonalLoop=1;jettySize=auto;html=1;exitX=1;exitY=0.25;exitDx=0;exitDy=0;entryX=0;entryY=0.5;entryDx=0;entryDy=0;curved=0;endArrow=none;startFill=0;" edge="1" parent="1" source="64EpxRwVbbQgUjMSI_ka-50" target="-BMLWCmr1hAgnJE4KNeQ-1">
          <mxGeometry relative="1" as="geometry">
            <Array as="points">
              <mxPoint x="530" y="485" />
              <mxPoint x="530" y="470" />
              <mxPoint x="553" y="470" />
            </Array>
          </mxGeometry>
        </mxCell>
        <mxCell id="uW3rmdDY23yGLlYiRjBE-17" style="edgeStyle=orthogonalEdgeStyle;rounded=1;orthogonalLoop=1;jettySize=auto;html=1;exitX=1;exitY=0.75;exitDx=0;exitDy=0;entryX=0;entryY=0.5;entryDx=0;entryDy=0;curved=0;endArrow=none;startFill=0;" edge="1" parent="1" source="64EpxRwVbbQgUjMSI_ka-50" target="uW3rmdDY23yGLlYiRjBE-14">
          <mxGeometry relative="1" as="geometry">
            <Array as="points">
              <mxPoint x="530" y="495" />
              <mxPoint x="530" y="510" />
            </Array>
          </mxGeometry>
        </mxCell>
        <mxCell id="64EpxRwVbbQgUjMSI_ka-50" value="Utente" style="rounded=0;whiteSpace=wrap;html=1;" parent="1" vertex="1">
          <mxGeometry x="460" y="480" width="50" height="20" as="geometry" />
        </mxCell>
        <mxCell id="64EpxRwVbbQgUjMSI_ka-194" style="edgeStyle=orthogonalEdgeStyle;rounded=1;orthogonalLoop=1;jettySize=auto;html=1;exitX=0;exitY=0.25;exitDx=0;exitDy=0;entryX=1;entryY=0.5;entryDx=0;entryDy=0;endArrow=none;startFill=0;" parent="1" source="64EpxRwVbbQgUjMSI_ka-51" target="64EpxRwVbbQgUjMSI_ka-68" edge="1">
          <mxGeometry relative="1" as="geometry" />
        </mxCell>
        <mxCell id="64EpxRwVbbQgUjMSI_ka-195" style="edgeStyle=orthogonalEdgeStyle;rounded=1;orthogonalLoop=1;jettySize=auto;html=1;exitX=0;exitY=0.75;exitDx=0;exitDy=0;entryX=1;entryY=0.5;entryDx=0;entryDy=0;endArrow=none;startFill=0;" parent="1" source="64EpxRwVbbQgUjMSI_ka-51" target="64EpxRwVbbQgUjMSI_ka-55" edge="1">
          <mxGeometry relative="1" as="geometry" />
        </mxCell>
        <mxCell id="64EpxRwVbbQgUjMSI_ka-204" style="edgeStyle=orthogonalEdgeStyle;rounded=1;orthogonalLoop=1;jettySize=auto;html=1;exitX=0.5;exitY=0;exitDx=0;exitDy=0;entryX=0.5;entryY=1;entryDx=0;entryDy=0;endArrow=none;startFill=0;startArrow=none;endFill=1;" parent="1" source="64EpxRwVbbQgUjMSI_ka-51" target="64EpxRwVbbQgUjMSI_ka-202" edge="1">
          <mxGeometry relative="1" as="geometry" />
        </mxCell>
        <mxCell id="64EpxRwVbbQgUjMSI_ka-51" value="Lettore" style="rounded=0;whiteSpace=wrap;html=1;" parent="1" vertex="1">
          <mxGeometry x="370" y="448.45" width="50" height="21.55" as="geometry" />
        </mxCell>
        <mxCell id="WrM48daoIJoYGqW7nCg0-11" style="edgeStyle=orthogonalEdgeStyle;rounded=1;orthogonalLoop=1;jettySize=auto;html=1;exitX=0;exitY=0.25;exitDx=0;exitDy=0;entryX=1;entryY=0.5;entryDx=0;entryDy=0;curved=0;endArrow=none;startFill=0;" parent="1" source="64EpxRwVbbQgUjMSI_ka-52" target="WrM48daoIJoYGqW7nCg0-10" edge="1">
          <mxGeometry relative="1" as="geometry">
            <Array as="points">
              <mxPoint x="330" y="526" />
              <mxPoint x="330" y="515" />
            </Array>
          </mxGeometry>
        </mxCell>
        <mxCell id="WrM48daoIJoYGqW7nCg0-13" style="edgeStyle=orthogonalEdgeStyle;rounded=1;orthogonalLoop=1;jettySize=auto;html=1;exitX=0;exitY=0.75;exitDx=0;exitDy=0;entryX=1;entryY=0.5;entryDx=0;entryDy=0;curved=0;endArrow=none;startFill=0;" parent="1" source="64EpxRwVbbQgUjMSI_ka-52" target="WrM48daoIJoYGqW7nCg0-9" edge="1">
          <mxGeometry relative="1" as="geometry">
            <Array as="points">
              <mxPoint x="330" y="539" />
              <mxPoint x="330" y="550" />
            </Array>
          </mxGeometry>
        </mxCell>
        <mxCell id="64EpxRwVbbQgUjMSI_ka-52" value="Bibliotecario" style="rounded=0;whiteSpace=wrap;html=1;" parent="1" vertex="1">
          <mxGeometry x="347.5" y="520" width="95" height="24.85" as="geometry" />
        </mxCell>
        <mxCell id="64EpxRwVbbQgUjMSI_ka-55" value="categoria" style="ellipse;whiteSpace=wrap;html=1;rounded=1;" parent="1" vertex="1">
          <mxGeometry x="260" y="469.23" width="65" height="20" as="geometry" />
        </mxCell>
        <mxCell id="64EpxRwVbbQgUjMSI_ka-64" value="&lt;u&gt;codice fiscale&lt;/u&gt;" style="ellipse;whiteSpace=wrap;html=1;rounded=1;" parent="1" vertex="1">
          <mxGeometry x="535" y="570" width="90" height="30" as="geometry" />
        </mxCell>
        <mxCell id="64EpxRwVbbQgUjMSI_ka-66" value="nome" style="ellipse;whiteSpace=wrap;html=1;rounded=1;" parent="1" vertex="1">
          <mxGeometry x="540" y="380" width="60" height="30" as="geometry" />
        </mxCell>
        <mxCell id="64EpxRwVbbQgUjMSI_ka-68" value="ritardi" style="ellipse;whiteSpace=wrap;html=1;rounded=1;" parent="1" vertex="1">
          <mxGeometry x="270" y="429.23" width="55" height="20" as="geometry" />
        </mxCell>
        <mxCell id="64EpxRwVbbQgUjMSI_ka-70" value="cognome" style="ellipse;whiteSpace=wrap;html=1;rounded=1;" parent="1" vertex="1">
          <mxGeometry x="540" y="415" width="60" height="27.5" as="geometry" />
        </mxCell>
        <mxCell id="64EpxRwVbbQgUjMSI_ka-79" value="via" style="ellipse;whiteSpace=wrap;html=1;rounded=1;" parent="1" vertex="1">
          <mxGeometry x="217.5" y="93.13" width="40" height="30" as="geometry" />
        </mxCell>
        <mxCell id="64EpxRwVbbQgUjMSI_ka-80" value="civico" style="ellipse;whiteSpace=wrap;html=1;rounded=1;" parent="1" vertex="1">
          <mxGeometry x="247.5" y="140.63" width="50" height="25" as="geometry" />
        </mxCell>
        <mxCell id="64EpxRwVbbQgUjMSI_ka-81" value="cap" style="ellipse;whiteSpace=wrap;html=1;rounded=1;" parent="1" vertex="1">
          <mxGeometry x="95" y="110.63" width="40" height="30" as="geometry" />
        </mxCell>
        <mxCell id="64EpxRwVbbQgUjMSI_ka-88" value="provincia" style="ellipse;whiteSpace=wrap;html=1;rounded=1;" parent="1" vertex="1">
          <mxGeometry x="65" y="166.88" width="60" height="30" as="geometry" />
        </mxCell>
        <mxCell id="64EpxRwVbbQgUjMSI_ka-171" style="edgeStyle=orthogonalEdgeStyle;rounded=1;orthogonalLoop=1;jettySize=auto;html=1;exitX=0.75;exitY=0;exitDx=0;exitDy=0;entryX=0;entryY=0.5;entryDx=0;entryDy=0;startArrow=none;startFill=0;endArrow=none;" parent="1" source="64EpxRwVbbQgUjMSI_ka-90" target="64EpxRwVbbQgUjMSI_ka-138" edge="1">
          <mxGeometry relative="1" as="geometry" />
        </mxCell>
        <mxCell id="64EpxRwVbbQgUjMSI_ka-189" style="edgeStyle=orthogonalEdgeStyle;rounded=1;orthogonalLoop=1;jettySize=auto;html=1;exitX=1;exitY=0.5;exitDx=0;exitDy=0;entryX=0;entryY=0.5;entryDx=0;entryDy=0;endArrow=none;startFill=0;" parent="1" source="64EpxRwVbbQgUjMSI_ka-90" target="64EpxRwVbbQgUjMSI_ka-94" edge="1">
          <mxGeometry relative="1" as="geometry" />
        </mxCell>
        <mxCell id="64EpxRwVbbQgUjMSI_ka-191" style="edgeStyle=orthogonalEdgeStyle;rounded=1;orthogonalLoop=1;jettySize=auto;html=1;exitX=0.75;exitY=1;exitDx=0;exitDy=0;entryX=0;entryY=0.5;entryDx=0;entryDy=0;endArrow=none;startFill=0;" parent="1" source="64EpxRwVbbQgUjMSI_ka-90" target="64EpxRwVbbQgUjMSI_ka-105" edge="1">
          <mxGeometry relative="1" as="geometry" />
        </mxCell>
        <mxCell id="64EpxRwVbbQgUjMSI_ka-203" style="edgeStyle=orthogonalEdgeStyle;rounded=1;orthogonalLoop=1;jettySize=auto;html=1;exitX=0.5;exitY=1;exitDx=0;exitDy=0;entryX=0.5;entryY=0;entryDx=0;entryDy=0;endArrow=none;startFill=0;endFill=1;" parent="1" source="64EpxRwVbbQgUjMSI_ka-90" target="64EpxRwVbbQgUjMSI_ka-202" edge="1">
          <mxGeometry relative="1" as="geometry" />
        </mxCell>
        <mxCell id="QNl1kk8Vg32E1iND4ZY_-20" style="edgeStyle=orthogonalEdgeStyle;rounded=1;orthogonalLoop=1;jettySize=auto;html=1;exitX=0.25;exitY=0;exitDx=0;exitDy=0;entryX=1;entryY=0.5;entryDx=0;entryDy=0;endArrow=none;startFill=0;" parent="1" source="64EpxRwVbbQgUjMSI_ka-90" target="64EpxRwVbbQgUjMSI_ka-13" edge="1">
          <mxGeometry relative="1" as="geometry" />
        </mxCell>
        <mxCell id="64EpxRwVbbQgUjMSI_ka-90" value="Copia" style="rounded=0;whiteSpace=wrap;html=1;" parent="1" vertex="1">
          <mxGeometry x="360" y="265" width="70" height="30" as="geometry" />
        </mxCell>
        <mxCell id="64EpxRwVbbQgUjMSI_ka-94" value="&lt;u&gt;ID&lt;/u&gt;" style="ellipse;whiteSpace=wrap;html=1;rounded=1;" parent="1" vertex="1">
          <mxGeometry x="460" y="267.5" width="30" height="25" as="geometry" />
        </mxCell>
        <mxCell id="64EpxRwVbbQgUjMSI_ka-105" value="disponibile" style="ellipse;whiteSpace=wrap;html=1;rounded=1;" parent="1" vertex="1">
          <mxGeometry x="445" y="301.25" width="80" height="38.75" as="geometry" />
        </mxCell>
        <mxCell id="64EpxRwVbbQgUjMSI_ka-109" value="&lt;u&gt;ID&lt;/u&gt;" style="ellipse;whiteSpace=wrap;html=1;rounded=1;" parent="1" vertex="1">
          <mxGeometry x="297.5" y="321.88" width="30" height="20" as="geometry" />
        </mxCell>
        <mxCell id="64EpxRwVbbQgUjMSI_ka-113" value="data" style="ellipse;whiteSpace=wrap;html=1;rounded=1;" parent="1" vertex="1">
          <mxGeometry x="287.5" y="358.76" width="40" height="21.24" as="geometry" />
        </mxCell>
        <mxCell id="64EpxRwVbbQgUjMSI_ka-115" value="scadenza" style="ellipse;whiteSpace=wrap;html=1;rounded=1;" parent="1" vertex="1">
          <mxGeometry x="270" y="390" width="60" height="25" as="geometry" />
        </mxCell>
        <mxCell id="64EpxRwVbbQgUjMSI_ka-126" value="&lt;u&gt;ID&lt;/u&gt;" style="ellipse;whiteSpace=wrap;html=1;rounded=1;" parent="1" vertex="1">
          <mxGeometry x="175" y="123.13" width="40" height="20" as="geometry" />
        </mxCell>
        <mxCell id="64EpxRwVbbQgUjMSI_ka-138" value="Rappresenta" style="rhombus;whiteSpace=wrap;html=1;rounded=0;" parent="1" vertex="1">
          <mxGeometry x="460" y="206.25" width="85" height="58.75" as="geometry" />
        </mxCell>
        <mxCell id="64EpxRwVbbQgUjMSI_ka-181" style="edgeStyle=orthogonalEdgeStyle;rounded=1;orthogonalLoop=1;jettySize=auto;html=1;exitX=0.5;exitY=1;exitDx=0;exitDy=0;entryX=0.5;entryY=0;entryDx=0;entryDy=0;endArrow=none;startFill=0;" parent="1" source="64EpxRwVbbQgUjMSI_ka-15" target="64EpxRwVbbQgUjMSI_ka-22" edge="1">
          <mxGeometry relative="1" as="geometry">
            <mxPoint x="700" y="310" as="targetPoint" />
            <Array as="points">
              <mxPoint x="615" y="270" />
              <mxPoint x="650" y="270" />
              <mxPoint x="650" y="300" />
              <mxPoint x="725" y="300" />
            </Array>
          </mxGeometry>
        </mxCell>
        <mxCell id="64EpxRwVbbQgUjMSI_ka-205" style="edgeStyle=orthogonalEdgeStyle;rounded=1;orthogonalLoop=1;jettySize=auto;html=1;exitX=0.25;exitY=0;exitDx=0;exitDy=0;entryX=1;entryY=0.5;entryDx=0;entryDy=0;endArrow=none;startFill=0;" parent="1" source="64EpxRwVbbQgUjMSI_ka-202" target="64EpxRwVbbQgUjMSI_ka-109" edge="1">
          <mxGeometry relative="1" as="geometry" />
        </mxCell>
        <mxCell id="64EpxRwVbbQgUjMSI_ka-206" style="edgeStyle=orthogonalEdgeStyle;rounded=1;orthogonalLoop=1;jettySize=auto;html=1;exitX=0;exitY=0.5;exitDx=0;exitDy=0;entryX=1;entryY=0.5;entryDx=0;entryDy=0;endArrow=none;startFill=0;" parent="1" source="64EpxRwVbbQgUjMSI_ka-202" target="64EpxRwVbbQgUjMSI_ka-113" edge="1">
          <mxGeometry relative="1" as="geometry" />
        </mxCell>
        <mxCell id="64EpxRwVbbQgUjMSI_ka-207" style="edgeStyle=orthogonalEdgeStyle;rounded=1;orthogonalLoop=1;jettySize=auto;html=1;exitX=0.25;exitY=1;exitDx=0;exitDy=0;entryX=1;entryY=0.5;entryDx=0;entryDy=0;endArrow=none;startFill=0;" parent="1" source="64EpxRwVbbQgUjMSI_ka-202" target="64EpxRwVbbQgUjMSI_ka-115" edge="1">
          <mxGeometry relative="1" as="geometry" />
        </mxCell>
        <mxCell id="64EpxRwVbbQgUjMSI_ka-202" value="Prestito" style="rounded=0;whiteSpace=wrap;html=1;" parent="1" vertex="1">
          <mxGeometry x="360" y="360" width="70" height="20" as="geometry" />
        </mxCell>
        <mxCell id="QNl1kk8Vg32E1iND4ZY_-6" style="edgeStyle=orthogonalEdgeStyle;rounded=0;orthogonalLoop=1;jettySize=auto;html=1;exitX=0;exitY=0;exitDx=0;exitDy=0;" parent="1" edge="1">
          <mxGeometry relative="1" as="geometry">
            <mxPoint x="410" y="410" as="sourcePoint" />
            <mxPoint x="410" y="410" as="targetPoint" />
          </mxGeometry>
        </mxCell>
        <mxCell id="QNl1kk8Vg32E1iND4ZY_-8" value="N" style="text;html=1;align=center;verticalAlign=middle;whiteSpace=wrap;rounded=0;" parent="1" vertex="1">
          <mxGeometry x="450" y="221.25" width="10" height="10" as="geometry" />
        </mxCell>
        <mxCell id="QNl1kk8Vg32E1iND4ZY_-9" value="1" style="text;html=1;align=center;verticalAlign=middle;whiteSpace=wrap;rounded=0;" parent="1" vertex="1">
          <mxGeometry x="545" y="221.25" width="10" height="10" as="geometry" />
        </mxCell>
        <mxCell id="QNl1kk8Vg32E1iND4ZY_-10" value="N" style="text;html=1;align=center;verticalAlign=middle;whiteSpace=wrap;rounded=0;" parent="1" vertex="1">
          <mxGeometry x="400" y="346.25" width="10" height="8.75" as="geometry" />
        </mxCell>
        <mxCell id="QNl1kk8Vg32E1iND4ZY_-11" value="1" style="text;html=1;align=center;verticalAlign=middle;whiteSpace=wrap;rounded=0;" parent="1" vertex="1">
          <mxGeometry x="400" y="300" width="10" height="10" as="geometry" />
        </mxCell>
        <mxCell id="QNl1kk8Vg32E1iND4ZY_-12" value="1" style="text;html=1;align=center;verticalAlign=middle;whiteSpace=wrap;rounded=0;" parent="1" vertex="1">
          <mxGeometry x="400" y="435" width="10" height="10" as="geometry" />
        </mxCell>
        <mxCell id="QNl1kk8Vg32E1iND4ZY_-13" value="N" style="text;html=1;align=center;verticalAlign=middle;whiteSpace=wrap;rounded=0;" parent="1" vertex="1">
          <mxGeometry x="400" y="385" width="10" height="10" as="geometry" />
        </mxCell>
        <mxCell id="QNl1kk8Vg32E1iND4ZY_-14" value="N" style="text;html=1;align=center;verticalAlign=middle;whiteSpace=wrap;rounded=0;fontSize=10;" parent="1" vertex="1">
          <mxGeometry x="725" y="307.5" width="10" height="10" as="geometry" />
        </mxCell>
        <mxCell id="QNl1kk8Vg32E1iND4ZY_-15" value="M" style="text;html=1;align=center;verticalAlign=middle;whiteSpace=wrap;rounded=0;fontSize=10;" parent="1" vertex="1">
          <mxGeometry x="725" y="365" width="10" height="10" as="geometry" />
        </mxCell>
        <mxCell id="QNl1kk8Vg32E1iND4ZY_-18" value="SCHEMA ER DELLE BIBILOTECHE" style="text;align=center;verticalAlign=middle;rounded=0;labelBorderColor=default;fontStyle=1;html=1;whiteSpace=wrap;spacingTop=0;spacing=0;" parent="1" vertex="1">
          <mxGeometry x="442.5" y="50" width="97.5" height="50" as="geometry" />
        </mxCell>
        <mxCell id="QNl1kk8Vg32E1iND4ZY_-22" value="1" style="text;html=1;align=center;verticalAlign=middle;whiteSpace=wrap;rounded=0;" parent="1" vertex="1">
          <mxGeometry x="257.5" y="221.25" width="20" height="10" as="geometry" />
        </mxCell>
        <mxCell id="QNl1kk8Vg32E1iND4ZY_-23" value="N" style="text;html=1;align=center;verticalAlign=middle;whiteSpace=wrap;rounded=0;" parent="1" vertex="1">
          <mxGeometry x="335" y="218.13" width="10" height="10" as="geometry" />
        </mxCell>
        <mxCell id="WrM48daoIJoYGqW7nCg0-1" value="password" style="ellipse;whiteSpace=wrap;html=1;" parent="1" vertex="1">
          <mxGeometry x="540" y="534.5799999999999" width="67.5" height="30" as="geometry" />
        </mxCell>
        <mxCell id="WrM48daoIJoYGqW7nCg0-9" value="sede" style="ellipse;whiteSpace=wrap;html=1;" parent="1" vertex="1">
          <mxGeometry x="266.25" y="542" width="47.5" height="15.15" as="geometry" />
        </mxCell>
        <mxCell id="WrM48daoIJoYGqW7nCg0-10" value="assunzione" style="ellipse;whiteSpace=wrap;html=1;" parent="1" vertex="1">
          <mxGeometry x="247.5" y="505" width="72.5" height="20" as="geometry" />
        </mxCell>
        <mxCell id="-BMLWCmr1hAgnJE4KNeQ-1" value="email" style="ellipse;whiteSpace=wrap;html=1;" parent="1" vertex="1">
          <mxGeometry x="552.5" y="460" width="55" height="20" as="geometry" />
        </mxCell>
        <mxCell id="-BMLWCmr1hAgnJE4KNeQ-5" value="nome" style="ellipse;whiteSpace=wrap;html=1;" parent="1" vertex="1">
          <mxGeometry x="173.75" y="267.5" width="42.5" height="27.5" as="geometry" />
        </mxCell>
        <mxCell id="uW3rmdDY23yGLlYiRjBE-5" value="paese" style="ellipse;whiteSpace=wrap;html=1;" vertex="1" parent="1">
          <mxGeometry x="705" y="429.23" width="40" height="30" as="geometry" />
        </mxCell>
        <mxCell id="uW3rmdDY23yGLlYiRjBE-9" value="pagine" style="ellipse;whiteSpace=wrap;html=1;" vertex="1" parent="1">
          <mxGeometry x="690" y="225.63" width="50" height="20" as="geometry" />
        </mxCell>
        <mxCell id="uW3rmdDY23yGLlYiRjBE-14" value="data_registrazione" style="ellipse;whiteSpace=wrap;html=1;" vertex="1" parent="1">
          <mxGeometry x="547.5" y="495" width="110" height="30" as="geometry" />
        </mxCell>
      </root>
    </mxGraphModel>
  </diagram>
</mxfile>
